<svg id="Layer_1" data-name="Layer 1" xmlns="http://www.w3.org/2000/svg" viewBox="0 0 50 50"><defs><style>.cls-1{fill:#eff7e5;fill-opacity:0.38;stroke:#000;}.cls-2{fill:#da0303;}.cls-3{fill:#2b7a0b;}</style></defs><path class="cls-1" d="M25,.5h0A24.5,24.5,0,0,1,49.5,25h0A24.5,24.5,0,0,1,25,49.5h0A24.5,24.5,0,0,1,.5,25h0A24.5,24.5,0,0,1,25,.5Z"/><path class="cls-2" d="M32.94,17.8a14.06,14.06,0,0,1-.57,3.65c-.37,1.36-.9,3.05-1.6,5.05L30,28.71a5.91,5.91,0,0,0,1.12.1c.66,0,1.65-.07,3-.19s2.27-.2,2.84-.2l0-3.52q-.06-3.64-.06-5.37c0-1.52.5-2.27,1.5-2.27.79,0,1.29.2,1.51.6a3.83,3.83,0,0,1,.35,1.83c0,.83-.07,2.12-.19,3.87,0,.34-.06.91-.1,1.7s-.06,1.47-.06,2l0,1,.64,0c.51-.05.91-.07,1.18-.07a2.45,2.45,0,0,1,1.47.51,1.4,1.4,0,0,1,.71,1.16,2.49,2.49,0,0,1-.26,1.24q-.22.45-.54.45a8.94,8.94,0,0,1-1.38-.13l-.57,0a4.81,4.81,0,0,0-.74-.06l-.54,0,0,4.32a1.21,1.21,0,0,1-.45,1,1.59,1.59,0,0,1-1,.36,1.9,1.9,0,0,1-1.25-.45,1.41,1.41,0,0,1-.55-1.12c0-1.43,0-2.55.07-3.36a7,7,0,0,0,0-.71,28.43,28.43,0,0,0-3.33.23,32.2,32.2,0,0,1-3.39.25,6.65,6.65,0,0,1-2.5-.41,1.39,1.39,0,0,1-1-1.31,8.29,8.29,0,0,1,.35-2.12c.24-.83.59-2,1.06-3.36.21-.55.37-1,.48-1.37.38-1.09.67-2,.86-2.75s.41-1.7.64-2.79a1.22,1.22,0,0,1,.55-.77,1.81,1.81,0,0,1,1-.25,1.79,1.79,0,0,1,1,.29A.77.77,0,0,1,32.94,17.8Z"/><path d="M15.88,17.34c0-.91.68-1.37,2-1.37.58,0,1.67,0,3.3.06,1.79.09,3.14.13,4.06.13.75,0,1.65,0,2.72-.13L29.36,16a7.41,7.41,0,0,1,3,.64,1.77,1.77,0,0,1,.58.38,1,1,0,0,1,.22.74,1.76,1.76,0,0,1-.45,1.21,1.43,1.43,0,0,1-1.08.48,15.22,15.22,0,0,1-2.05-.19A11.34,11.34,0,0,0,27.47,19c-.58,0-1,0-1.31,0-.07.7-.1,2.39-.1,5.06,0,3.17.1,6.4.29,9.66l.06.93c0,.87-.5,1.31-1.5,1.31a1.92,1.92,0,0,1-1.6-.54,2.94,2.94,0,0,1-.42-1.73c0-1.52,0-3.4-.13-5.67-.08-1.87-.12-3.21-.12-4,0-.53.06-2.16.19-4.89l-3.75,0a6.77,6.77,0,0,1-2.49-.32A1.55,1.55,0,0,1,15.88,17.34Z"/><path class="cls-3" d="M16.08,19a6.17,6.17,0,0,0-1.86,1.09,6.79,6.79,0,0,0-1.37,1.57l-.51.8a15.1,15.1,0,0,0-.87,1.4,3.68,3.68,0,0,0-.38,1.16,6,6,0,0,1,4.48-1.6,5.75,5.75,0,0,1,2.62.7,7.75,7.75,0,0,1,2.27,1.63,4.74,4.74,0,0,1,.9,1.86,8.85,8.85,0,0,1,.38,2.65,4.65,4.65,0,0,1-.67,2.31,7.88,7.88,0,0,1-1.66,2,4.58,4.58,0,0,1-1.79,1.09,9,9,0,0,1-2.21.32,7.09,7.09,0,0,1-3.91-1.15,8.39,8.39,0,0,1-2.84-3.07A8.68,8.68,0,0,1,7.6,27.58a12.66,12.66,0,0,1,1.5-6,13.39,13.39,0,0,1,4-4.67,5.44,5.44,0,0,1,1.47-.61A6.43,6.43,0,0,1,16.53,16c1,0,1.57.41,1.57,1.25a1.38,1.38,0,0,1-.55,1.15A3.87,3.87,0,0,1,16.08,19ZM14.8,33.09A8.9,8.9,0,0,0,16.05,33a2.68,2.68,0,0,0,.93-.35,5.58,5.58,0,0,0,1.12-1.05,2,2,0,0,0,.51-1.22,3.83,3.83,0,0,0-1.09-3.1,3.86,3.86,0,0,0-2.5-.93,4.45,4.45,0,0,0-1.69.41,5.18,5.18,0,0,0-1.6,1,1.79,1.79,0,0,0-.64,1.25,4.33,4.33,0,0,0,.57,2.3,3.91,3.91,0,0,0,3.14,1.73Z"/></svg>